<?xml version="1.0" encoding="UTF-8"?><svg id="Layer_1" xmlns="http://www.w3.org/2000/svg" viewBox="0 0 563.39 327.12"><defs><style>.cls-1{fill:#fdfeff;}</style></defs><path class="cls-1" d="m305.02,174.59v-11.67h-66.36v68.04h66.46v-11.67h-52.47v-16.72h42.9v-11.04h-42.9v-16.93h52.37Zm88.68-23.48h9.11c-18.65-48.71-65.84-83.31-121.12-83.31s-102.46,34.59-121.12,83.31h9.11c6.01-14.53,14.89-27.87,26.34-39.32,22.88-22.88,53.31-35.49,85.67-35.49s62.79,12.6,85.67,35.49c11.45,11.45,20.33,24.79,26.34,39.32Zm-230.73,30.42l50.58,49.42h13.99v-68.04h-13.99v49.81l-50.58-49.81h-13.99v68.04h13.99v-49.42Zm298.55-18.62l-31.97,68.04h15.14l.12-.26c5.41-7.66,14.31-12.68,24.38-12.68s19,5.03,24.4,12.71l.1.23h15.25l-32.28-68.04h-15.14Zm7.67,43.19c-5.06,0-9.92.91-14.41,2.57l14.32-31.63,14.42,31.6c-4.47-1.64-9.3-2.54-14.33-2.54Zm-375.64-43.19l-31.97,68.04h15.14l.12-.26c5.41-7.66,14.31-12.68,24.38-12.68s19,5.03,24.4,12.71l.1.23h15.25l-32.28-68.04h-15.14Zm7.67,43.19c-5.06,0-9.92.91-14.41,2.57l14.32-31.63,14.42,31.6c-4.47-1.64-9.3-2.54-14.33-2.54Zm266.14,77.02c-22.88,22.88-53.31,35.49-85.67,35.49s-62.79-12.6-85.67-35.49c-11.45-11.45-20.33-24.79-26.34-39.32h-9.11c18.65,48.71,65.84,83.31,121.12,83.31s102.46-34.59,121.12-83.31h-9.11c-6.01,14.53-14.89,27.87-26.34,39.32Zm62.74-120.21l-21.99,54.56-20.91-54.56h-16.09l-20.91,54.56-21.99-54.56h-15.46l28.71,68.04h17.14l20.61-53.27,20.51,53.27h17.14l28.39-68.04h-15.14Zm117.09,0l-20.54,33.83-20.89-33.83h-16.19l29.87,46.58v21.45h14.09v-21.45l29.86-46.58h-16.19ZM47.01,204.35c0,2.94-.56,5.59-1.68,7.94-1.12,2.35-2.88,4.21-5.26,5.57-2.38,1.37-5.5,2.05-9.36,2.05-4.49,0-8.33-1.03-11.52-3.1-3.19-2.07-5.17-5.1-5.94-9.1H0c.14,4.14,1.09,7.73,2.84,10.78,1.75,3.05,4.06,5.57,6.94,7.57,2.87,2,6.12,3.49,9.73,4.47,3.61.98,7.34,1.47,11.2,1.47,4.98,0,9.34-.7,13.09-2.1,3.75-1.4,6.9-3.35,9.46-5.84,2.56-2.49,4.49-5.34,5.78-8.57,1.3-3.22,1.95-6.62,1.95-10.2v-42.38h-13.99v41.43ZM436.91,25.09c0-3.96-2.71-7.49-6.53-8.17,3.29-1.06,5.75-3.63,5.75-7.73,0-5.03-3.92-8.7-10.97-8.7h-13.92v33.74h14.55c7.01,0,11.12-3.77,11.12-9.14Zm-18.9-19.14h6.19c3.19,0,5.03,1.55,5.03,4.25s-1.84,4.21-5.03,4.21h-6.19V5.95Zm0,22.77v-9.09h6.67c3.29,0,5.37,1.74,5.37,4.64s-1.93,4.45-5.22,4.45h-6.82Zm-317.69-7.44h5.66c8.7,0,12.18-5.22,12.18-10.35,0-5.85-4.06-10.44-12.18-10.44h-12.42v33.74h6.77v-12.96Zm0-15.28h5.37c3.82,0,5.51,1.84,5.51,4.93s-1.69,4.88-5.51,4.88h-5.37V5.99Zm358.17,28.23h6.77v-11.75L476.66.48h-7.54l-7.2,15.42-7.25-15.42h-7.64l11.46,22v11.75Zm-182.4-13.15h3.19l7.45,13.15h7.83l-8.07-13.68c5.41-1.45,7.69-5.61,7.69-9.72,0-5.66-4.06-10.35-12.18-10.35h-12.67v33.74h6.77v-13.15Zm0-14.99h5.66c3.77,0,5.46,1.89,5.46,4.88s-1.69,5.03-5.46,5.03h-5.66V6.09Zm-22.58,22.62h-12.81v-8.94h11.36v-5.37h-11.36V5.95h12.81V.44h-19.58v33.79h19.58v-5.51Zm-90.5-11.46c0-10.1-7.64-17.26-17.26-17.26s-17.31,7.15-17.31,17.26,7.78,17.31,17.31,17.31,17.26-7.15,17.26-17.31Zm-17.26,11.26c-6.14,0-10.35-4.4-10.35-11.26s4.21-11.17,10.35-11.17,10.3,4.3,10.3,11.17-4.21,11.26-10.3,11.26Zm43.76,5.7l6.62-24.03,6.33,24.03h7.98L219.87.48h-7.3l-5.99,26.06L200.1.48h-7.54l-6.86,26.2L179.74.48h-7.25l9.09,33.79,7.93-.05Zm140.05-5.51h-12.81v-8.94h11.36v-5.37h-11.36V5.95h12.81V.44h-19.58v33.79h19.58v-5.51Zm45.39-11.31c0-10.25-7.01-16.92-17.79-16.92h-11.8v33.74h11.8c10.78,0,17.79-6.62,17.79-16.82Zm-22.82,11.07V6.19h4.79c7.11,0,11.12,4.21,11.12,11.22s-4.01,11.07-11.12,11.07h-4.79Z"/></svg>
