<?xml version="1.0" encoding="utf-8"?>
<!-- Generator: Adobe Illustrator 26.3.1, SVG Export Plug-In . SVG Version: 6.00 Build 0)  -->
<svg version="1.1" id="Layer_1" xmlns="http://www.w3.org/2000/svg" xmlns:xlink="http://www.w3.org/1999/xlink" x="0px" y="0px"
	 viewBox="30 80 790 180" style="enable-background:new 0 0 850.39 340.16;" xml:space="preserve">
<style type="text/css">
	.st0{fill:#FFFFFF;}
</style>
<g>
	<g>
		<path class="st0" d="M307.76,241.03l6.4-4.85c2.87,5.07,8.17,10.04,16.12,10.04c10.59,0,18.32-6.62,18.32-21.63v-42.81h8.83v42.7
			c0,20.97-11.81,29.9-26.93,29.9C319.24,254.38,311.07,247.87,307.76,241.03z"/>
		<path class="st0" d="M396.03,181.79h7.95l33.55,72.61h-8.94l-6.62-14.08h-43.82l-6.62,14.08h-9.05L396.03,181.79z M418.77,233.06
			l-13.13-28.15c-2.43-5.26-5.18-12.18-5.63-13.07c-0.44,0.89-3.08,7.71-5.63,13.07l-13.13,28.15H418.77z"/>
		<path class="st0" d="M448.43,181.79h8.83l35.65,47.1c3.64,4.92,7.62,11.75,7.62,11.75v-58.85h8.83v72.5h-9.05l-34.98-45.98
			c-4.3-5.71-8.06-12.53-8.06-12.53v58.51h-8.83v-72.5H448.43z"/>
		<path class="st0" d="M523.9,181.79h54.07v7.85h-45.24v22.07h42.37v7.73h-42.37v27.12h46.9v7.85H523.9V181.79L523.9,181.79z"/>
		<path class="st0" d="M591.29,182.01h8.83l16.66,50.52c1.44,4.33,2.87,9.65,2.87,9.65s1.11-5.32,2.43-9.65l15.12-50.74h8.83
			l15.12,50.74c1.33,4.44,2.43,9.65,2.43,9.65s1.44-5.21,2.87-9.65l16.66-50.52h8.94l-23.94,72.39h-8.83l-15.11-49.75
			c-1.44-4.66-2.54-11.1-2.54-11.1s-1,6.44-2.43,11.1l-15.23,49.73h-8.83L591.29,182.01z"/>
		<path class="st0" d="M719.51,181.79h7.95l33.55,72.5h-8.94l-6.62-14.06h-43.81l-6.62,14.06h-9.05L719.51,181.79z M742.24,232.98
			l-13.13-28.1c-2.43-5.25-5.18-12.16-5.63-13.05c-0.44,0.89-3.08,7.7-5.63,13.05l-13.13,28.1H742.24z"/>
		<path class="st0" d="M782.54,220l-28.81-38.21h10.15l18.98,24.54c2.32,3.13,4.08,6.05,4.08,6.05s2.1-3.02,4.3-6.05l18.65-24.54
			h10.26l-28.81,38.1v34.51h-8.83V220L782.54,220z"/>
	</g>
	<g>
		<path class="st0" d="M286.15,249.58l-19.92,4.95c-1.29,0.32-2.6-0.47-2.92-1.76l-33.76-136.02c-0.32-1.29,0.47-2.6,1.76-2.92
			l19.92-4.95c1.29-0.32,2.6,0.47,2.92,1.76l33.76,136.02C288.23,247.94,287.44,249.25,286.15,249.58z"/>
		<path class="st0" d="M221.21,255.1h-21.76c-1.34,0-2.41-1.08-2.41-2.41V87.98c0-1.34,1.08-2.41,2.41-2.41h21.76
			c1.34,0,2.41,1.08,2.41,2.41v164.71C223.62,254.02,222.54,255.1,221.21,255.1z"/>
		<path class="st0" d="M151.61,255.1h-17.36c-1.34,0-2.41-1.08-2.41-2.41V156.9c0-1.34,1.08-2.41,2.41-2.41h17.36
			c1.34,0,2.41,1.08,2.41,2.41v95.79C154.02,254.02,152.94,255.1,151.61,255.1z"/>
		<path class="st0" d="M51.14,254.32l-19.32-6.92c-1.25-0.45-1.91-1.83-1.46-3.08l47.22-131.95c0.45-1.25,1.83-1.91,3.08-1.46
			l19.32,6.92c1.25,0.45,1.91,1.83,1.46,3.08L54.21,252.86C53.77,254.11,52.39,254.77,51.14,254.32z"/>
		<path class="st0" d="M87.9,254.32l-19.32-6.92c-1.25-0.45-1.91-1.83-1.46-3.08l47.23-131.95c0.45-1.25,1.83-1.91,3.08-1.46
			l19.32,6.92c1.25,0.45,1.91,1.83,1.46,3.08L90.99,252.86C90.53,254.11,89.16,254.77,87.9,254.32z"/>
		<path class="st0" d="M185.79,255.1h-20.52c-1.34,0-2.41-1.08-2.41-2.41V112.54c0-1.34,1.08-2.41,2.41-2.41h20.52
			c1.34,0,2.41,1.08,2.41,2.41v140.15C188.21,254.02,187.13,255.1,185.79,255.1z"/>
	</g>
	<g>
		<path class="st0" d="M476.28,114.97V85.56h13.44c7.27,0,11.8,3.23,11.8,9.7c0,6.85-5,9.79-11.8,9.79h-8.53v9.91H476.28z
			 M489.34,101.52c5.42,0,7.14-2.52,7.14-6.26c0-3.74-1.81-6.13-7.14-6.13h-8.15v12.39H489.34z"/>
		<path class="st0" d="M509.25,100.26c0-9.75,6.51-15.21,16.51-15.21c10.04,0,16.55,5.46,16.55,15.21s-6.51,15.21-16.55,15.21
			C515.76,115.47,509.25,110.01,509.25,100.26z M537.18,100.26c0-7.94-4.96-11.59-11.43-11.59c-6.43,0-11.38,3.65-11.38,11.59
			s4.96,11.59,11.38,11.59C532.23,111.86,537.18,108.2,537.18,100.26z"/>
		<path class="st0" d="M577.71,114.97l-7.27-23.78l-7.23,23.78h-5.12l-9.66-29.41h5l7.39,23.65h0.08l7.1-23.65h4.87l7.1,23.65h0.08
			l7.39-23.65h5l-9.66,29.41H577.71z"/>
		<path class="st0" d="M600.26,114.97V85.56h24.24v3.82h-19.32v8.74h17.14v3.61h-17.14v9.41h19.32v3.82H600.26z"/>
		<path class="st0" d="M654.74,114.97l-1.51-5.5c-1.13-3.99-3.19-5.92-6.01-6.47c-0.63-0.13-1.22-0.17-2.14-0.17h-6.59v12.14h-4.92
			V85.56h14.45c6.13,0,10.88,2.27,10.88,8.49c0,3.65-2.1,6.85-6.6,7.77c3.91,1.34,5.12,4.28,5.88,7.23
			c0.17,0.63,1.43,4.96,1.85,5.92H654.74z M647.72,99.42c4.58,0,6.13-2.56,6.13-5.29c0-2.44-1.34-4.92-6.13-4.92h-9.24v10.21H647.72
			z"/>
		<path class="st0" d="M668.17,114.97V85.56h24.24v3.82h-19.32v8.74h17.14v3.61h-17.14v9.41h19.32v3.82H668.17z"/>
		<path class="st0" d="M701.48,114.97V85.56h12.81c11.34,0,16.89,5,16.89,14.53c0,9.33-5.42,14.87-16.59,14.87H701.48z
			 M714.63,111.44c7.56,0,11.43-4.12,11.43-11.22c0-7.77-4.24-11.13-11.43-11.13h-8.23v22.35H714.63z"/>
		<path class="st0" d="M761.2,114.97V85.56h12.98c8.07,0,10.25,3.95,10.25,7.27c0,2.65-1.81,5.84-5.8,6.93v0.04
			c5.63,0.46,8.02,3.32,8.02,7.02c0,3.95-2.81,8.15-9.87,8.15H761.2z M773.09,98.71c3.53,0,6.3-1.97,6.3-5.17
			c0-2.39-1.72-4.33-5.84-4.33h-7.44v9.49H773.09z M775.82,111.31c3.28,0,5.8-1.51,5.8-4.91c0-2.69-2.1-4.71-6.97-4.71h-8.53v9.62
			H775.82z"/>
		<path class="st0" d="M803.08,114.97v-10.54l-12.14-18.86h5.54l9.07,14.74l9.07-14.74h5.54l-12.14,18.86v10.54H803.08z"/>
	</g>
</g>
</svg>
