<?xml version="1.0" encoding="UTF-8"?><svg id="Layer_1" xmlns="http://www.w3.org/2000/svg" viewBox="0 0 175.01 79.42"><path d="m159.69,31.75h-25.98V0h-15.32v63.23c-6.85-2.18-11.83-8.6-11.83-16.17h0v-14.77C106.55,14.48,92.07,0,74.26,0h-34.59s-.03,0-.05,0C17.72.06-.05,17.91,0,39.81c.05,21.87,17.85,39.62,39.71,39.62h.09c21.89-.05,39.67-17.9,39.62-39.8-.02-7.4-2.09-14.62-5.98-20.88-.74-1.19-1.56-2.33-2.42-3.43h3.24c9.36,0,16.97,7.61,16.97,17.06v14.68h0c0,17.81,14.48,32.29,32.29,32.29h10.18v-10.89h0v-21.39h25.98v32.35h15.32V0h-15.32v31.75Zm-119.92,32.35h-.06c-13.42,0-24.36-10.91-24.39-24.34-.03-13.45,10.89-24.42,24.34-24.45.02,0,.04,0,.06,0,4.15,0,8.24,1.06,11.84,3.06h0c3.62,2.02,6.69,4.94,8.89,8.46,2.39,3.84,3.66,8.27,3.67,12.81.03,13.45-10.89,24.42-24.34,24.45Z"/></svg>