<?xml version="1.0" encoding="UTF-8"?><svg id="Layer_1" xmlns="http://www.w3.org/2000/svg" viewBox="0 0 484.35 83.52"><defs><style>.cls-1{fill:#1579a0;}</style></defs><path class="cls-1" d="m420.65,54.18h-5.91v5.74h-2.77v4.82h2.77v11.19c0,5.32,2.98,7.21,7.42,7.21h3.69v-4.95h-2.72c-1.84,0-2.47-.67-2.47-2.22v-11.23h5.2v-4.82h-5.2v-5.74ZM211.49,3.19c-8.26,0-15,6.2-15,14.96s6.75,15,15,15,14.96-6.2,14.96-15-6.62-14.96-14.96-14.96Zm0,24.73c-5.32,0-8.97-3.81-8.97-9.76s3.65-9.68,8.97-9.68,8.93,3.73,8.93,9.68-3.65,9.76-8.93,9.76Zm81.23,44.8c0,3.73-2.01,5.74-5.2,5.74s-5.16-2.01-5.16-5.74v-12.78h-5.87v13.62c0,6.37,3.9,9.89,9.3,9.89,2.89,0,5.45-1.26,6.92-3.23v2.93h5.91v-23.22h-5.91v12.78Zm-38.27-51.54c0-7.25-4.65-11.9-10.6-11.9-3.6,0-6.29,1.76-7.67,3.73v-3.35h-5.87v34.28h5.87v-14.37c1.42,1.89,4.02,3.69,7.67,3.69,5.95,0,10.6-4.82,10.6-12.07Zm-12.15,6.91c-3.14,0-6.12-2.43-6.12-6.83s2.97-6.83,6.12-6.83,6.16,2.35,6.16,6.75-2.98,6.91-6.16,6.91Zm23.19,37.84h-12.53v-12.03h-5.87v29.25h5.87v-12.45h12.53v12.45h5.87v-29.25h-5.87v12.03Zm180.14-22.08l14.53-34.58h-6.26l-6.22,16.6-6.12-16.55h-6.59l9.44,22.97-5.03,11.57h6.24Zm-237.23,15.71c-6.7,0-11.94,4.65-11.94,11.99s5.07,11.99,11.78,11.99,12.11-4.69,12.11-11.99-5.24-11.99-11.94-11.99Zm-.17,18.86c-3.14,0-5.82-2.26-5.82-6.87s2.81-6.87,5.91-6.87,5.99,2.22,5.99,6.87-2.97,6.87-6.08,6.87Zm125.64-50.2h-9.64V3.6h-5.87v29.25h15.51v-4.65Zm48.19-6.92c0-4.48,2.1-5.83,5.57-5.83h1.55v-6.16c-3.23,0-5.66,1.55-7.12,3.94v-3.6h-5.87v23.22h5.87v-11.57Zm-113.33,11.94c5.74,0,9.6-3.39,10.85-7.67h-6.33c-.75,1.55-2.14,2.81-4.65,2.81-2.93,0-5.28-1.93-5.57-5.36h16.97c.13-.75.17-1.51.17-2.26,0-6.91-4.74-11.48-11.44-11.48s-11.65,4.65-11.65,11.99,4.9,11.99,11.65,11.99Zm-.17-19.15c3.02,0,5.45,1.93,5.53,4.99h-11.02c.46-3.19,2.68-4.99,5.49-4.99Zm182.48,45.47c-6.87,0-11.65,4.65-11.65,11.99s4.9,11.99,11.65,11.99c5.74,0,9.6-3.39,10.85-7.67h-6.33c-.75,1.55-2.14,2.81-4.65,2.81-2.93,0-5.28-1.93-5.57-5.36h16.97c.13-.75.17-1.51.17-2.26,0-6.91-4.74-11.48-11.44-11.48Zm-5.66,9.81c.46-3.18,2.68-4.99,5.49-4.99,3.02,0,5.45,1.93,5.53,4.99h-11.02Zm25.94-2.93c0-1.34,1.13-2.22,3.31-2.22,2.3,0,3.73,1.22,3.9,3.02h5.62c-.34-4.61-3.73-7.67-9.35-7.67s-9.18,3.1-9.18,6.96c0,8.51,13.12,5.87,13.12,10.02,0,1.34-1.26,2.39-3.56,2.39s-3.98-1.34-4.19-3.1h-5.91c.25,4.32,4.32,7.71,10.14,7.71s9.14-3.02,9.14-7c-.17-8.51-13.03-5.87-13.03-10.1Zm-240.51-7.46c0-2.6.96-3.52,3.81-3.44v-4.94c-6.54-.17-9.76,2.47-9.76,8.17v1.17h-2.64v4.82h2.64v18.4h5.95v-18.4h4.07v-4.82h-4.07v-.96Zm171.79,24.18h5.87v-23.22h-5.87v23.22Zm-40.87-73.88c-3.52,0-6.24,1.63-7.67,3.77V1.84h-5.87v31.01h5.87v-3.31c1.42,2.01,4.02,3.69,7.67,3.69,5.95,0,10.6-4.82,10.6-12.07s-4.65-11.9-10.6-11.9Zm-1.55,18.82c-3.14,0-6.12-2.43-6.12-6.83s2.97-6.83,6.12-6.83,6.16,2.35,6.16,6.75-2.98,6.91-6.16,6.91Zm28,31.51c-2.98,0-5.49,1.26-7,3.23v-2.89h-5.87v23.22h5.87v-12.82c0-3.73,2.05-5.74,5.24-5.74s5.16,2.01,5.16,5.74v12.82h5.87v-13.62c0-6.41-3.86-9.93-9.26-9.93Zm17.39-9.3c-2.1,0-3.6,1.51-3.6,3.44s1.51,3.44,3.6,3.44,3.6-1.51,3.6-3.44-1.55-3.44-3.6-3.44Zm-99.42-17.43v-13.62c0-6.41-3.86-9.93-9.26-9.93-2.98,0-5.49,1.26-7,3.23v-2.89h-5.87v23.22h5.87v-12.82c0-3.73,2.05-5.74,5.24-5.74s5.16,2.01,5.16,5.74v12.82h5.87Zm109.22,0V9.64h-5.91v3.31c-1.38-1.93-3.94-3.69-7.67-3.69-5.91,0-10.6,4.65-10.6,11.9s4.69,12.07,10.56,12.07c3.69,0,6.33-1.76,7.71-3.77v3.39h5.91Zm-12.07-4.78c-3.14,0-6.12-2.51-6.12-6.91s2.97-6.75,6.12-6.75,6.16,2.43,6.16,6.83-2.93,6.83-6.16,6.83Zm30.21-12.61v-6.16c-3.23,0-5.66,1.55-7.12,3.94v-3.6h-5.87v23.22h5.87v-11.57c0-4.48,2.1-5.83,5.57-5.83h1.55Zm-96.34,17.39h5.87V9.64h-5.87v23.22Zm2.97-32.86c-2.1,0-3.6,1.51-3.6,3.44s1.51,3.44,3.6,3.44,3.6-1.51,3.6-3.44-1.55-3.44-3.6-3.44Zm89.52,83.14h5.87v-23.22h-5.87v23.22Zm-97.05-23.55c-3.39,0-6.45,1.8-7.96,4.44-1.59-2.89-4.57-4.44-8.17-4.44-2.89,0-5.36,1.22-6.83,3.14v-2.81h-5.87v23.22h5.87v-12.82c0-3.69,2.05-5.62,5.24-5.62s5.16,1.93,5.16,5.62v12.82h5.87v-12.82c0-3.69,2.05-5.62,5.2-5.62s5.15,1.93,5.15,5.62v12.82h5.87v-13.62c0-6.41-3.94-9.93-9.51-9.93Zm100.03-9.3c-2.1,0-3.6,1.51-3.6,3.44s1.51,3.44,3.6,3.44,3.6-1.51,3.6-3.44-1.55-3.44-3.6-3.44Zm-68.39,12.95c-1.38-1.93-3.94-3.69-7.67-3.69-5.91,0-10.6,4.65-10.6,11.9s4.69,12.07,10.56,12.07c3.69,0,6.33-1.76,7.71-3.77v3.39h5.91v-23.22h-5.91v3.31Zm-6.16,15.13c-3.14,0-6.12-2.51-6.12-6.91s2.97-6.75,6.12-6.75,6.16,2.43,6.16,6.83-2.93,6.83-6.16,6.83Zm-198.4-42.92h-25.98V3.69h-15.32v63.23c-6.85-2.18-11.83-8.6-11.83-16.17h0v-14.77c0-17.81-14.49-32.29-32.29-32.29h-34.59s-.03,0-.05,0C17.72,3.75-.05,21.6,0,43.5c.05,21.87,17.85,39.62,39.71,39.62h.09c21.89-.05,39.67-17.9,39.62-39.8-.02-7.4-2.09-14.62-5.98-20.88-.74-1.19-1.56-2.33-2.42-3.43h3.24c9.36,0,16.97,7.61,16.97,17.06v14.68h0c0,17.81,14.48,32.29,32.29,32.29h10.18v-10.89h0v-21.39h25.98v32.35h15.32V3.69h-15.32v31.75Zm-119.92,32.35h-.06c-13.42,0-24.36-10.91-24.39-24.34-.03-13.45,10.89-24.42,24.34-24.45.02,0,.04,0,.06,0,4.15,0,8.24,1.06,11.84,3.06h0c3.62,2.02,6.69,4.94,8.89,8.46,2.39,3.84,3.66,8.27,3.67,12.81.03,13.45-10.89,24.42-24.34,24.45Z"/></svg>