<?xml version="1.0" encoding="UTF-8" standalone="no" ?>
<svg
  width="19.999754"
  height="20.000004"
  viewBox="0 0 19.999754 20.000004"
  fill="currentColor"
  class="icon icon-tabler icons-tabler-filled icon-tabler-accessible"
  version="1.1"
  id="svg1"
  xmlns="http://www.w3.org/2000/svg"
  xmlns:svg="http://www.w3.org/2000/svg"
>
  <path stroke="none" d="M4 4h12v12H4z" fill="#fff"/>
  <path
    d="M 15,1.3398924 A 10,10 0 1 1 0.005,10.323892 L 0,9.9998924 l 0.005,-0.324 A 10,10 0 0 1 15,1.3398924 Z m -1.051,6.844 a 1,1 0 0 0 -1.152,-0.663 l -0.113,0.03 -2.684,0.895 -2.684,-0.895 -0.113,-0.03 a 1,1 0 0 0 -0.628,1.884 l 0.109,0.044 L 9,10.219892 v 0.976 l -1.832,2.75 -0.06,0.1 a 1,1 0 0 0 0.237,1.21 l 0.1,0.076 0.101,0.06 a 1,1 0 0 0 1.21,-0.237 l 0.076,-0.1 1.168,-1.752 1.168,1.752 0.07,0.093 a 1,1 0 0 0 1.653,-1.102 l -0.059,-0.1 -1.832,-2.75 v -0.977 l 2.316,-0.7709996 0.109,-0.044 a 1,1 0 0 0 0.524,-1.221 z M 10,3.9998924 a 1.5,1.5 0 1 0 0,3 1.5,1.5 0 0 0 0,-3"
  />
</svg>
