<?xml version="1.0" encoding="UTF-8"?><svg id="Icons" xmlns="http://www.w3.org/2000/svg" viewBox="0 0 130 130"><defs><style>.cls-1{fill:#e94c33;}.cls-2{fill:#ec8323;}.cls-3{fill:#d6cbbc;}.cls-4{fill:#202124;}</style></defs><rect class="cls-3" x="12.98" y="12.98" width="104.04" height="104.04"/><path class="cls-4" d="m51.18,78.49c7.02,0,14.04-2.68,19.4-8.04,5.36-5.36,8.04-12.38,8.04-19.4h-27.44v27.44Z"/><path class="cls-2" d="m51.18,51.05h27.44c0-7.02-2.68-14.04-8.04-19.4-10.71-10.71-28.09-10.71-38.8,0-10.71,10.71-10.71,28.09,0,38.8,5.36,5.36,12.38,8.04,19.4,8.04v-27.44Z"/><path class="cls-1" d="m78.61,51.05c0,7.02-2.68,14.04-8.04,19.4-5.36,5.36-12.38,8.04-19.4,8.04v27.44h54.87v-54.87h-27.44Z"/></svg>