<?xml version="1.0" encoding="UTF-8" standalone="no"?>
<svg
   viewBox="0 0 20 20"
   fill="#fdfeff"
   xmlns="http://www.w3.org/2000/svg"
   xmlns:svg="http://www.w3.org/2000/svg">
  <path
     d="m 9.9822,0 c 2.8087,0 5.1781,0.964063 7.1069,2.89281 C 19.0291,4.83344 20,7.2025 20,10 20,12.8097 19.0472,15.1488 17.1422,17.017499 15.1184,19.005899 12.7319,20 9.9822,20 7.27938,20 4.93437,19.017499 2.94656,17.0531 0.98250001,15.0887 0,12.7381 0,10 0,7.26219 0.98250001,4.89313 2.94656,2.89312 4.87531,0.964062 7.22,0 9.9822,0 Z m 0.0356,1.80375 c -2.27374,0 -4.19624,0.79781 -5.7678,2.39281 -1.63125,1.66688 -2.44656,3.60156 -2.44656,5.80374 0,2.2144 0.80937,4.1313 2.42812,5.7494 1.61907,1.619399 3.5475,2.428399 5.78564,2.428399 2.2259,0 4.1669,-0.8147 5.8215,-2.4462 1.5716,-1.5119 2.3572,-3.422499 2.3572,-5.732209 0,-2.27375 -0.7978,-4.20782 -2.3925,-5.80344 -1.595,-1.595 -3.5237,-2.3925 -5.7856,-2.3925 z m 2.6788,5.71406 v 4.08909 h -1.1425 v 4.856799 H 8.44656 v -4.8565 H 7.30406 V 7.51781 C 7.30406,7.33906 7.36656,7.1875 7.49125,7.0625 7.61656,6.93781 7.76844,6.875 7.94656,6.875 h 4.10754 c 0.1665,0 0.3156,0.0625 0.4462,0.1875 0.1303,0.125 0.1963,0.27687 0.1963,0.45531 z M 8.60687,4.94656 c 0,-0.94 0.46407,-1.41062 1.39313,-1.41062 0.9291,0 1.3928,0.47 1.3928,1.41062 0,0.92844 -0.4644,1.39281 -1.3928,1.39281 -0.92844,0 -1.39313,-0.46437 -1.39313,-1.39281 z"
  />
</svg>
