<svg
  xmlns="http://www.w3.org/2000/svg"
  viewBox="0 0 20 20"
  fill="none">
  <path
    fill="#dfdeff"
    d="M9.98156 0C12.7788 0 15.1603 0.976562 17.1244 2.92875C18.0644 3.86906 18.7791 4.94375 19.2672 6.15188C19.755 7.36031 19.9997 8.64281 19.9997 10C19.9997 11.3691 19.7581 12.6519 19.2766 13.8478C18.7944 15.0441 18.0828 16.1009 17.1428 17.0175C16.1669 17.9816 15.0597 18.72 13.8212 19.2319C12.5834 19.7437 11.3034 19.9997 9.98219 19.9997C8.66094 19.9997 7.39594 19.7472 6.1875 19.2406C4.97937 18.735 3.89594 18.0028 2.9375 17.0447C1.97906 16.0866 1.25 15.0059 0.75 13.8034C0.25 12.6009 0 11.3334 0 10C0 8.67844 0.252813 7.40781 0.75875 6.1875C1.26469 4.96719 2 3.875 2.96406 2.91062C4.86875 0.970625 7.20781 0 9.98156 0ZM10.0178 1.80375C7.73219 1.80375 5.80938 2.60156 4.24969 4.19656C3.46375 4.99437 2.85969 5.89 2.43719 6.88406C2.01406 7.87812 1.80313 8.91687 1.80313 10.0003C1.80313 11.0719 2.01406 12.1047 2.43719 13.0981C2.86 14.0928 3.46375 14.9797 4.24969 15.7594C5.03531 16.5394 5.92188 17.1341 6.91062 17.5453C7.89844 17.9559 8.93437 18.1613 10.0178 18.1613C11.0891 18.1613 12.1272 17.9534 13.1344 17.5366C14.1403 17.1194 15.0472 16.5187 15.8572 15.7331C17.4166 14.2094 18.1959 12.2987 18.1959 10.0006C18.1959 8.89344 17.9934 7.84594 17.5888 6.85781C17.1847 5.86969 16.595 4.98906 15.8219 4.21469C14.2138 2.6075 12.2797 1.80375 10.0178 1.80375ZM9.8925 8.33969L8.55281 9.03625C8.40969 8.73906 8.23438 8.53031 8.02625 8.41125C7.81781 8.2925 7.62437 8.23281 7.44563 8.23281C6.55312 8.23281 6.10625 8.82187 6.10625 10.0006C6.10625 10.5363 6.21938 10.9644 6.44531 11.2859C6.67156 11.6075 7.005 11.7684 7.44563 11.7684C8.02906 11.7684 8.43969 11.4825 8.67813 10.9113L9.91 11.5363C9.64813 12.0247 9.285 12.4084 8.82063 12.6881C8.35688 12.9681 7.84469 13.1078 7.285 13.1078C6.39219 13.1078 5.67156 12.8344 5.12406 12.2863C4.57656 11.7388 4.30281 10.9769 4.30281 10.0009C4.30281 9.04844 4.57969 8.29281 5.13313 7.73313C5.68656 7.17375 6.38594 6.89375 7.23156 6.89375C8.47 6.89313 9.35656 7.37531 9.8925 8.33969ZM15.6603 8.33969L14.3387 9.03625C14.1959 8.73906 14.02 8.53031 13.8119 8.41125C13.6031 8.2925 13.4034 8.23281 13.2137 8.23281C12.3209 8.23281 11.8741 8.82187 11.8741 10.0006C11.8741 10.5363 11.9875 10.9644 12.2134 11.2859C12.4394 11.6075 12.7725 11.7684 13.2137 11.7684C13.7966 11.7684 14.2075 11.4825 14.4453 10.9113L15.6953 11.5363C15.4219 12.0247 15.0525 12.4084 14.5887 12.6881C14.1244 12.9681 13.6184 13.1078 13.0709 13.1078C12.1659 13.1078 11.4431 12.8344 10.9019 12.2863C10.3594 11.7388 10.0887 10.9769 10.0887 10.0009C10.0887 9.04844 10.3653 8.29281 10.9194 7.73313C11.4725 7.17375 12.1719 6.89375 13.0172 6.89375C14.2553 6.89313 15.1369 7.37531 15.6603 8.33969Z">
  </path>
</svg>
