<?xml version="1.0" encoding="UTF-8"?>
<svg id="Icons" xmlns="http://www.w3.org/2000/svg" viewBox="0 0 130 130">
  <defs>
    <style>
      .cls-1 {
        fill: #202124;
      }

      .cls-1, .cls-2, .cls-3, .cls-4 {
        stroke-width: 0px;
      }

      .cls-2 {
        fill: #1579a0;
      }

      .cls-3 {
        fill: #d6cbbc;
      }

      .cls-4 {
        fill: #ec8323;
      }
    </style>
  </defs>
  <rect class="cls-3" x="12.98" y="13.36" width="104.04" height="104.04"/>
  <g>
    <path class="cls-2" d="m46.88,109.2l21.03-47.63h0s5.11-11.56,5.11-11.56c1.37,1.31,2.97,2.41,4.79,3.22,2.97,1.31,6.12,1.69,9.11,1.27,5.54-.79,10.57-4.33,13-9.83,3.74-8.47-.1-18.37-8.57-22.11-2.97-1.31-6.12-1.69-9.11-1.27-5.54.79-10.57,4.33-13,9.83-.11.25-.19.5-.29.75l-10.78,24.42c-10.66-.05-20.83,6.1-25.41,16.47-6.16,13.96.16,30.28,14.12,36.44Zm32.23-73l.52-1.19c.88-1.51,2.39-2.54,4.15-2.79,1.06-.15,2.11,0,3.1.44,1.4.62,2.47,1.74,3.03,3.17.55,1.43.52,2.98-.1,4.38-.81,1.82-2.47,3.08-4.45,3.36-1.06.15-2.11,0-3.1-.44-2.69-1.19-4.01-4.2-3.15-6.94Z"/>
    <path class="cls-4" d="m97.24,72.76c-4.58-10.37-14.76-16.52-25.41-16.47l-10.78-24.42c-.1-.25-.18-.5-.29-.75-2.43-5.5-7.45-9.05-13-9.83-3-.43-6.14-.05-9.11,1.27-8.47,3.74-12.31,13.64-8.57,22.11,2.43,5.5,7.45,9.04,13,9.83,3,.43,6.14.05,9.11-1.27,1.83-.81,3.43-1.92,4.79-3.22l5.11,11.56h0s21.03,47.63,21.03,47.63c13.96-6.16,20.28-22.48,14.12-36.44Zm-49.51-29.63c-1,.44-2.04.59-3.1.44-1.98-.28-3.64-1.54-4.45-3.36-.62-1.4-.65-2.96-.1-4.38.55-1.43,1.63-2.55,3.03-3.17,1-.44,2.04-.59,3.1-.44,1.77.25,3.28,1.28,4.15,2.79l.52,1.19c.85,2.74-.47,5.75-3.15,6.94Z"/>
    <circle class="cls-1" cx="65.1" cy="61.79" r="9.65"/>
  </g>
</svg>