<?xml version="1.0" encoding="UTF-8"?>
<svg id="Descriptions" xmlns="http://www.w3.org/2000/svg" viewBox="12.98 13.09 104.04 104.04">
  <defs>
    <style>
      .cls-1{fill:#e94c33;}.cls-2{fill:#ec8323;}.cls-3{fill:#d6cbbc;}.cls-4{fill:#1d1d1b;}
    </style>
  </defs>
  <rect class="cls-3" x="12.98" y="13.09" width="104.04" height="104.04"/>
  <path class="cls-1" d="m96.5,71.21c0,17.4-14.1,31.5-31.5,31.5s-31.5-14.1-31.5-31.5,14.1-31.5,31.5-31.5,31.5,14.1,31.5,31.5"/>
  <path class="cls-4" d="m77.18,39.71c0,6.73-5.45,12.18-12.18,12.18s-12.18-5.45-12.18-12.18,5.45-12.18,12.18-12.18,12.18,5.45,12.18,12.18"/>
  <path class="cls-4" d="m104.48,86.99c0,6.73-5.45,12.18-12.18,12.18s-12.18-5.45-12.18-12.18,5.45-12.18,12.18-12.18,12.18,5.45,12.18,12.18"/>
  <path class="cls-4" d="m49.88,86.99c0,6.73-5.45,12.18-12.18,12.18s-12.18-5.45-12.18-12.18,5.45-12.18,12.18-12.18,12.18,5.45,12.18,12.18"/>
  <polygon class="cls-2" points="65 39.71 37.7 86.99 92.3 86.99 65 39.71"/>
</svg>
