<?xml version="1.0" encoding="UTF-8"?><svg id="Icons" xmlns="http://www.w3.org/2000/svg" viewBox="0 0 130 130"><defs><style>.cls-1{fill:#e94c33;}.cls-2{fill:#ec8323;}.cls-3{fill:#d6cbbc;}</style></defs><rect class="cls-3" x="12.98" y="12.98" width="104.04" height="104.04"/><path class="cls-1" d="m105.84,64.86c-22.11,0-40.13,17.5-40.99,39.4-.86-21.9-18.87-39.4-40.99-39.4-.01,0-.03,0-.04,0v41.03h82.06v-41.03s-.03,0-.04,0Z"/><path class="cls-2" d="m23.86,64.86c22.11,0,40.13-17.5,40.99-39.4.86,21.9,18.87,39.4,40.99,39.4.01,0,.03,0,.04,0V23.83H23.82v41.03s.03,0,.04,0Z"/><circle cx="64.85" cy="64.86" r="10.62"/></svg>