<?xml version="1.0" encoding="UTF-8"?><svg id="Icons" xmlns="http://www.w3.org/2000/svg" viewBox="0 0 130 130"><defs><style>.cls-1{fill:#ec8323;}.cls-2{fill:#d6cbbc;}.cls-3{fill:#1579a0;}</style></defs><rect class="cls-2" x="12.98" y="12.98" width="104.04" height="104.04"/><path class="cls-1" d="m73.45,39.66s.04.02.07.02c0,0,0,0,0,0l-.07-.02Z"/><path class="cls-1" d="m73.51,39.68c-2.68-.91-5.55-1.41-8.53-1.41-1.5,0-2.97.13-4.4.37-.28.04-.55.1-.82.15-.09.02-.18.04-.28.06-1.14.23-2.26.51-3.35.88-7.02,2.14-21.94,13.83-32.49,25.1,10.59,11.3,25.56,23.03,32.56,25.12h0c2.66.9,5.51,1.39,8.47,1.39,1.49,0,2.95-.13,4.37-.37.28-.04.55-.1.83-.15.1-.02.2-.04.3-.06,1.12-.22,2.22-.5,3.28-.86h0c7-2.09,21.97-13.82,32.56-25.12-10.55-11.27-25.47-22.96-32.49-25.1Z"/><path class="cls-1" d="m56.13,39.73s0,0,0,0c.02,0,.04-.02.07-.02l-.07.02Z"/><circle class="cls-3" cx="64.98" cy="64.78" r="21.49"/><circle cx="64.98" cy="64.8" r="12.18"/></svg>